<svg width="48" height="48" viewBox="0 0 48 48" fill="none" xmlns="http://www.w3.org/2000/svg">
<path d="M0 10C0 4.47715 4.47715 0 10 0H38C43.5229 0 48 4.47715 48 10V38C48 43.5229 43.5228 48 38 48H10C4.47715 48 0 43.5228 0 38V10Z" fill="#171717"/>
<path d="M21 23L23 25L27.5 20.5M21.9 31.2L23.36 33.1467C23.5771 33.4362 23.6857 33.5809 23.8188 33.6327C23.9353 33.678 24.0647 33.678 24.1812 33.6327C24.3143 33.5809 24.4229 33.4362 24.64 33.1467L26.1 31.2C26.3931 30.8091 26.5397 30.6137 26.7185 30.4645C26.9569 30.2656 27.2383 30.1248 27.5405 30.0535C27.7671 30 28.0114 30 28.5 30C29.8978 30 30.5967 30 31.1481 29.7716C31.8831 29.4672 32.4672 28.8831 32.7716 28.1481C33 27.5967 33 26.8978 33 25.5V19.8C33 18.1198 33 17.2798 32.673 16.638C32.3854 16.0735 31.9265 15.6146 31.362 15.327C30.7202 15 29.8802 15 28.2 15H19.8C18.1198 15 17.2798 15 16.638 15.327C16.0735 15.6146 15.6146 16.0735 15.327 16.638C15 17.2798 15 18.1198 15 19.8V25.5C15 26.8978 15 27.5967 15.2284 28.1481C15.5328 28.8831 16.1169 29.4672 16.8519 29.7716C17.4033 30 18.1022 30 19.5 30C19.9886 30 20.2329 30 20.4595 30.0535C20.7617 30.1248 21.0431 30.2656 21.2815 30.4645C21.4603 30.6137 21.6069 30.8091 21.9 31.2Z" stroke="white" stroke-width="2" stroke-linecap="round" stroke-linejoin="round"/>
</svg>
