<svg width="48" height="48" viewBox="0 0 48 48" fill="none" xmlns="http://www.w3.org/2000/svg">
<path d="M0 10C0 4.47715 4.47715 0 10 0H38C43.5229 0 48 4.47715 48 10V38C48 43.5229 43.5228 48 38 48H10C4.47715 48 0 43.5228 0 38V10Z" fill="#171717"/>
<path d="M21 29.5H15.5M18.5 24H14M21 18.5H16M29 15L22.4036 24.235C22.1116 24.6438 21.9656 24.8481 21.9719 25.0185C21.9774 25.1669 22.0486 25.3051 22.1661 25.3958C22.3011 25.5 22.5522 25.5 23.0546 25.5H28L27 33L33.5964 23.765C33.8884 23.3562 34.0344 23.1519 34.0281 22.9815C34.0226 22.8331 33.9514 22.6949 33.8339 22.6042C33.6989 22.5 33.4478 22.5 32.9454 22.5H28L29 15Z" stroke="white" stroke-width="2" stroke-linecap="round" stroke-linejoin="round"/>
</svg>
