<svg width="93" height="34" viewBox="0 0 93 34" fill="none" xmlns="http://www.w3.org/2000/svg">
<g clip-path="url(#clip0_1_14783)">
<path d="M24.3731 7.32944V20.2205C24.3731 20.538 24.2025 20.8314 23.9255 20.9901L12.227 27.6944V27.6916L1.43023 33.8791C0.83339 34.2212 0.0874023 33.7936 0.0874023 33.1095V22.2663C0.0874023 21.5822 0.83339 21.1547 1.43023 21.4967L10.8842 26.9146C11.481 27.2567 12.227 26.8291 12.227 26.145V14.2937C12.227 13.9759 12.0561 13.6823 11.7787 13.5237L1.42555 7.60232C0.828451 7.2608 0.827671 6.4057 1.42412 6.06314L11.7736 0.119003C12.0504 -0.0400172 12.3917 -0.0403398 12.6688 0.118165L23.8809 6.53085C23.8809 6.53085 23.881 6.53085 23.8811 6.53092L23.9578 6.57485C24.2077 6.73432 24.3731 7.01269 24.3731 7.32944Z" fill="#262626"/>
</g>
<path d="M40.1548 6.62657H32.7692V22.1944H35.8316V17.4351H40.02C43.6453 17.4351 45.6267 14.6551 45.6267 12.0309C45.6265 9.451 43.6225 6.62657 40.1548 6.62657ZM39.9296 14.7219H35.8316V9.38435H40.0647C41.5734 9.38435 42.6317 10.6742 42.6317 12.0531C42.6317 13.4097 41.5959 14.7219 39.9296 14.7219ZM52.044 22.5058C53.6426 22.5058 54.9036 21.8387 55.7142 20.8156V22.1945H58.7095V10.9411H55.7142V12.2978C54.9036 11.2747 53.6426 10.6298 52.044 10.6298C48.8916 10.6298 46.4147 13.1429 46.4147 16.5678C46.4146 19.9705 48.8915 22.5058 52.044 22.5058ZM52.5619 19.8815C50.693 19.8815 49.3644 18.5026 49.3644 16.5455C49.3644 14.6107 50.6929 13.254 52.5619 13.254C54.3633 13.254 55.8043 14.6107 55.8043 16.5455C55.8043 18.5026 54.3633 19.882 52.5619 19.882V19.8815ZM70.1704 10.9411V12.2532C69.3147 11.208 68.0763 10.6297 66.5676 10.6297C63.3026 10.6297 60.9382 12.9648 60.9382 16.3453C60.9382 19.5478 63.3025 22.061 66.5676 22.061C68.0763 22.061 69.3143 21.4827 70.1704 20.4374V21.7941C70.1479 23.4621 69.2022 24.7525 67.3332 24.7525C65.8915 24.7525 64.9469 24.2187 64.3609 23.3069L61.7714 24.2187C62.7171 25.9089 64.4735 27.1771 67.2656 27.1771C70.8232 27.1771 73.1425 24.9307 73.1425 21.7951V10.9411H70.1704ZM67.0855 19.4144C65.194 19.4144 63.888 18.169 63.888 16.3456C63.888 14.5222 65.194 13.2767 67.0855 13.2767C68.9094 13.2767 70.2379 14.5444 70.2379 16.3456C70.2379 18.1691 68.9094 19.4144 67.0855 19.4144ZM77.5785 9.362C77.9186 9.35336 78.2486 9.24613 78.5274 9.05368C78.8062 8.86122 79.0216 8.59203 79.1467 8.27961C79.2718 7.96718 79.3012 7.62531 79.2311 7.29655C79.161 6.96778 78.9945 6.66663 78.7525 6.43057C78.5104 6.19452 78.2034 6.03398 77.8697 5.96893C77.5359 5.90389 77.1902 5.93721 76.8755 6.06475C76.5608 6.19229 76.291 6.40842 76.0997 6.68624C75.9084 6.96406 75.804 7.2913 75.7996 7.62725C75.7987 7.85721 75.8442 8.08504 75.9335 8.29739C76.0229 8.50975 76.1542 8.70235 76.3199 8.86392C76.4856 9.02548 76.6822 9.15276 76.8984 9.23829C77.1145 9.32382 77.3457 9.36588 77.5785 9.362ZM76.0473 22.1943H79.0426V10.9411H76.0473V22.1943ZM87.3735 22.5056C90.5033 22.5056 92.4623 20.5485 92.9127 18.836L90.1432 18.0798C89.8955 19.0139 88.8372 19.8812 87.351 19.8812C85.4595 19.8812 84.2438 18.3023 84.2438 16.5453C84.2438 14.7661 85.4597 13.2316 87.351 13.2316C88.837 13.2316 89.8955 14.1656 90.1432 15.0997L92.9127 14.3212C92.4624 12.6311 90.5033 10.6294 87.351 10.6294C83.8834 10.6294 81.3163 13.187 81.3163 16.5452C81.3164 19.9259 83.8834 22.5058 87.3736 22.5058L87.3735 22.5056Z" fill="#262626"/>
<defs>
<clipPath id="clip0_1_14783">
<rect width="24.2857" height="34" fill="white" transform="translate(0.0874023)"/>
</clipPath>
</defs>
</svg>
